<?xml version="1.0" standalone="no"?><svg xmlns="http://www.w3.org/2000/svg" viewBox="0 0 1440 320"><path fill="#FFBA86" fill-opacity="1" d="M0,192L26.7,208C53.3,224,107,256,160,256C213.3,256,267,224,320,224C373.3,224,427,256,480,229.3C533.3,203,587,117,640,101.3C693.3,85,747,139,800,186.7C853.3,235,907,277,960,277.3C1013.3,277,1067,235,1120,229.3C1173.3,224,1227,256,1280,240C1333.3,224,1387,160,1413,128L1440,96L1440,320L1413.3,320C1386.7,320,1333,320,1280,320C1226.7,320,1173,320,1120,320C1066.7,320,1013,320,960,320C906.7,320,853,320,800,320C746.7,320,693,320,640,320C586.7,320,533,320,480,320C426.7,320,373,320,320,320C266.7,320,213,320,160,320C106.7,320,53,320,27,320L0,320Z"></path></svg>